<?xml version="1.0" encoding="utf-8"?>
<!-- Generator: Adobe Illustrator 23.0.0, SVG Export Plug-In . SVG Version: 6.00 Build 0)  -->
<svg version="1.1" id="Layer_1" xmlns="http://www.w3.org/2000/svg" xmlns:xlink="http://www.w3.org/1999/xlink" x="0px" y="0px"
	 viewBox="0 0 64 64" style="enable-background:new 0 0 64 64;" xml:space="preserve">
<style type="text/css">
	.st0{fill:#6A94BA;}
	.st1{fill:#FFE2B8;}
	.st2{fill:#FFFFFF;}
	.st3{fill:#445EA0;}
	.st4{fill:#293D7C;}
	.st5{fill:#D9EAFC;}
	.st6{fill:#FE3745;}
	.st7{fill:#B7092B;}
	.st8{fill:#AEC1ED;}
	.st9{fill:#FFC987;}
	.st10{fill:#FFAF10;}
	.st11{fill:#FFD00D;}
	.st12{fill:#52BBEF;}
	.st13{fill:#69CDFF;}
</style>
<path class="st0" d="M64,32c0,17.7-14.3,32-32,32c-6.8,0-13-2.1-18.2-5.7c-2-1.4-3.7-2.9-5.4-4.7c-0.4-0.4-0.7-0.8-1.1-1.3
	C2.8,46.9,0,39.8,0,32C0,14.3,14.3,0,32,0S64,14.3,64,32z"/>
<g>
	<path class="st1" d="M30.9,46.6c0-0.1-0.1-0.1-0.2-0.1c0,0-0.1,0-0.1,0c-0.1,0.1-0.3,0.1-0.4,0.1c-0.3,0-0.6-0.2-0.8-0.4l-0.4-0.8
		c-0.2-0.4-0.1-1,0.3-1.2c0.1-0.1,0.1-0.2,0.1-0.3c0-0.1-0.1-0.1-0.2-0.1c0,0-0.1,0-0.1,0c-0.1,0.1-0.3,0.1-0.4,0.1
		c-0.3,0-0.6-0.2-0.8-0.4l-0.4-0.8c-0.2-0.4-0.1-1,0.3-1.2c0.1-0.1,0.1-0.2,0.1-0.3c0-0.1-0.1-0.1-0.2-0.1c0,0-0.1,0-0.1,0l-0.4,0.2
		c-0.1,0.1-0.3,0.1-0.4,0.1c0,0-0.1,0-0.1,0c0,0,0,0,0,0c-0.1,0-0.1,0-0.2,0.1c0,0.1,0,0.1,0,0.2l0.3,0.5c0.2,0.4,0.1,1-0.3,1.2
		l-1.2,0.7c-0.1,0.1-0.3,0.1-0.4,0.1c-0.3,0-0.6-0.2-0.8-0.4l-0.4-0.7l-0.2,0.1l4.4,7.7l2.9-1.7c-0.1-0.1-0.1-0.1-0.2-0.2L30,48.3
		c-0.2-0.4-0.1-1,0.3-1.2l0.4-0.2C30.9,46.8,30.9,46.7,30.9,46.6z"/>
	<path class="st2" d="M43,24l2.4-1.4c0.2-0.1,0.3-0.4,0.2-0.7l-4.1-7.1c-0.1-0.2-0.4-0.3-0.7-0.2L38.4,16L43,24z"/>
	<path class="st3" d="M23.8,38.4c0.3,0,0.6,0.2,0.8,0.4l0.4,0.8c0,0.1,0.1,0.1,0.2,0.1c0,0,0,0,0,0c0.1,0,0.1-0.1,0.2-0.1
		c0.1-0.2,0.2-0.3,0.4-0.4l3.5-2c0,0,0,0,0,0L27,33l-4.9,2.8l1.5,2.6C23.7,38.4,23.7,38.4,23.8,38.4z"/>
	<g>
		<path class="st4" d="M23.8,38.4c0.3,0,0.6,0.2,0.8,0.4l0.4,0.8c0,0.1,0.1,0.1,0.2,0.1c0,0,0,0,0,0c0.1,0,0.1-0.1,0.2-0.1
			c0.1-0.2,0.2-0.3,0.4-0.4l0,0L23.4,35l-1.4,0.8l1.5,2.6C23.7,38.4,23.7,38.4,23.8,38.4z"/>
		<path class="st4" d="M30,48.3c-0.2-0.4-0.1-1,0.3-1.2l0,0l-0.3-0.5c-0.3,0-0.6-0.2-0.8-0.4l-0.4-0.8c-0.2-0.3-0.2-0.6,0-0.9
			L28.6,44c-0.3,0-0.6-0.2-0.8-0.4l-0.4-0.8c-0.2-0.3-0.2-0.6,0-0.9l-0.3-0.5l0,0c-0.1,0.1-0.3,0.1-0.4,0.1c0,0-0.1,0-0.1,0
			c0,0,0,0,0,0c-0.1,0-0.1,0-0.2,0.1c0,0.1,0,0.1,0,0.2l0.3,0.5c0.2,0.4,0.1,0.8-0.2,1.1l2.8,4.9c0.1,0.2,0.4,0.3,0.7,0.2L30,48.3
			L30,48.3z"/>
	</g>
	<path class="st2" d="M17.2,30.6l-2.6,1.5c-0.2,0.1-0.3,0.4-0.2,0.7l2.1,3.7c0.1,0.2,0.4,0.3,0.7,0.2l2.6-1.5L17.2,30.6z"/>
	<path class="st5" d="M15.8,32.5l1.8-1.1l-0.5-0.9l-2.6,1.5c-0.2,0.1-0.3,0.4-0.2,0.7l2.1,3.7c0.1,0.2,0.4,0.3,0.7,0.2l0.4-0.2
		l-1.9-3.2C15.5,32.9,15.6,32.6,15.8,32.5z"/>
	<polygon class="st2" points="32.8,12 24.1,25.2 28,31.8 43.7,30.9 	"/>
	<polygon class="st5" points="32.8,12 24.1,25.2 25.3,27.2 34,14 	"/>
	<path class="st6" d="M28.4,31.8c0.1,0.2,0.1,0.5-0.2,0.7L21,36.7c-0.2,0.1-0.5,0.1-0.7-0.2l-4.1-7.1c-0.1-0.2-0.1-0.5,0.2-0.7
		l7.2-4.2c0.2-0.1,0.5-0.1,0.7,0.2L28.4,31.8z"/>
	<path class="st7" d="M18.2,29.9c-0.1-0.2-0.1-0.5,0.2-0.7l6.4-3.7l-0.5-0.8c-0.1-0.2-0.4-0.3-0.7-0.2l-7.2,4.2
		c-0.2,0.1-0.3,0.4-0.2,0.7l4.1,7.1c0.1,0.2,0.4,0.3,0.7,0.2l0.8-0.5L18.2,29.9z"/>
	<path class="st6" d="M47.6,31.5c0.1,0.2,0.1,0.5-0.2,0.7l-2,1.1c-0.2,0.1-0.5,0.1-0.7-0.2L31.4,10c-0.1-0.2-0.1-0.5,0.2-0.7l2-1.1
		C33.7,8,34,8.1,34.2,8.3L47.6,31.5z"/>
	<path class="st7" d="M33.1,10.5c-0.1-0.2-0.1-0.5,0.2-0.7l1.4-0.8l-0.4-0.7C34,8.1,33.7,8,33.5,8.1l-2,1.1
		c-0.2,0.1-0.3,0.4-0.2,0.7l13.4,23.2c0.1,0.2,0.4,0.3,0.7,0.2L46,33L33.1,10.5z"/>
	<path class="st5" d="M8.4,53.7c1.6,1.7,3.4,3.3,5.4,4.7l9.5-5.1l0.3-0.1l-3.4-5.8l-0.8-1.4L19.2,46L7.3,52.4L8.4,53.7z"/>
	<polygon class="st8" points="8.4,53.7 20,47.4 20.2,47.3 20.2,47.3 19.4,45.9 19.2,46 7.3,52.4 	"/>
	<path class="st1" d="M25.2,44.4c-0.5,0.3-1.2,0.1-1.5-0.4l-2-3.5c-0.3-0.5-0.1-1.2,0.4-1.5l1.2-0.7c0.5-0.3,1.2-0.1,1.5,0.4l2,3.5
		c0.3,0.5,0.1,1.2-0.4,1.5L25.2,44.4z"/>
	<path class="st9" d="M26.8,42.2l-2-3.5c-0.2-0.4-0.6-0.5-1-0.5l2,3.5c0.3,0.5,0.1,1.2-0.4,1.5l-1.2,0.7c-0.2,0.1-0.3,0.1-0.5,0.1
		l0,0c0.3,0.5,1,0.7,1.5,0.4l1.2-0.7C26.9,43.4,27.1,42.7,26.8,42.2z"/>
	<path class="st10" d="M46.9,20.6c-0.3,0-0.5-0.1-0.6-0.4c-0.2-0.4-0.1-0.8,0.3-1c0.9-0.5,1.2-1.7,0.7-2.6c-0.5-0.9-1.7-1.2-2.6-0.7
		c-0.4,0.2-0.8,0.1-1-0.3c-0.2-0.4-0.1-0.8,0.3-1c1.6-0.9,3.7-0.4,4.6,1.2c0.9,1.6,0.4,3.7-1.2,4.6C47.2,20.5,47.1,20.6,46.9,20.6z"
		/>
	<path class="st11" d="M48.4,23.2c-0.3,0-0.5-0.1-0.6-0.4c-0.2-0.4-0.1-0.8,0.3-1c2.3-1.3,3.1-4.3,1.8-6.7c-0.7-1.1-1.7-1.9-3-2.3
		c-1.3-0.3-2.6-0.2-3.7,0.5c-0.4,0.2-0.8,0.1-1-0.3c-0.2-0.4-0.1-0.8,0.3-1c1.5-0.9,3.2-1.1,4.8-0.6c1.6,0.4,3,1.5,3.9,3
		c1.8,3,0.7,6.9-2.3,8.7C48.7,23.1,48.6,23.2,48.4,23.2z"/>
	<path class="st1" d="M31.1,38.1c0.3,0.5,0.1,1.2-0.4,1.5l-3.5,2c-0.5,0.3-1.2,0.1-1.5-0.4l-0.4-0.8c-0.3-0.5-0.1-1.2,0.4-1.5l3.5-2
		c0.5-0.3,1.2-0.1,1.5,0.4L31.1,38.1z"/>
	<path class="st9" d="M26.8,41.5l-0.4-0.8c-0.3-0.5-0.1-1.2,0.4-1.5l3.5-2c0.1,0,0.2-0.1,0.3-0.1c-0.3-0.4-0.9-0.5-1.4-0.2l-3.5,2
		c-0.5,0.3-0.7,1-0.4,1.5l0.4,0.8c0.2,0.4,0.8,0.6,1.2,0.5C26.9,41.7,26.8,41.6,26.8,41.5z"/>
	<path class="st1" d="M33.1,40.5c0.3,0.5,0.1,1.2-0.4,1.5l-3.5,2c-0.5,0.3-1.2,0.1-1.5-0.4l-0.4-0.8c-0.3-0.5-0.1-1.2,0.4-1.5l3.5-2
		c0.5-0.3,1.2-0.1,1.5,0.4L33.1,40.5z"/>
	<path class="st9" d="M28.8,43.9l-0.4-0.8c-0.3-0.5-0.1-1.2,0.4-1.5l3.5-2c0.1,0,0.2-0.1,0.3-0.1c-0.3-0.4-0.9-0.5-1.4-0.2l-3.5,2
		c-0.5,0.3-0.7,1-0.4,1.5l0.4,0.8c0.2,0.4,0.8,0.6,1.2,0.5C28.8,44.1,28.8,44,28.8,43.9z"/>
	<g>
		<path class="st1" d="M34.6,43.1c0.3,0.5,0.1,1.2-0.4,1.5l-3.5,2c-0.5,0.3-1.2,0.1-1.5-0.4l-0.4-0.8c-0.3-0.5-0.1-1.2,0.4-1.5
			l3.5-2c0.5-0.3,1.2-0.1,1.5,0.4L34.6,43.1z"/>
		<path class="st1" d="M35.7,46c0.3,0.5,0.1,1.2-0.4,1.5l-3.5,2c-0.5,0.3-1.2,0.1-1.5-0.4l-0.4-0.8c-0.3-0.5-0.1-1.2,0.4-1.5l3.5-2
			c0.5-0.3,1.2-0.1,1.5,0.4L35.7,46z"/>
	</g>
	<g>
		<path class="st9" d="M30.3,46.6l-0.4-0.8c-0.3-0.5-0.1-1.2,0.4-1.5l3.5-2c0.1,0,0.2-0.1,0.3-0.1c-0.3-0.4-0.9-0.5-1.4-0.2l-3.5,2
			c-0.5,0.3-0.7,1-0.4,1.5l0.4,0.8c0.2,0.4,0.8,0.6,1.2,0.5C30.4,46.7,30.3,46.7,30.3,46.6z"/>
		<path class="st9" d="M31.4,49.5l-0.4-0.8c-0.3-0.5-0.1-1.2,0.4-1.5l3.5-2c0.1,0,0.2-0.1,0.3-0.1c-0.3-0.4-0.9-0.5-1.4-0.2l-3.5,2
			c-0.5,0.3-0.7,1-0.4,1.5l0.4,0.8c0.2,0.4,0.8,0.6,1.2,0.5C31.5,49.6,31.4,49.6,31.4,49.5z"/>
	</g>
	<path class="st12" d="M28,51.4c0.1,0.2,0.1,0.5-0.2,0.7l-3.4,2c-0.2,0.1-0.5,0.1-0.7-0.2l-5-8.6c-0.1-0.2-0.1-0.5,0.2-0.7l3.4-2
		c0.2-0.1,0.5-0.1,0.7,0.2L28,51.4z"/>
	<path class="st13" d="M23.5,43.6l-2.9,1.7c-0.2,0.1-0.3,0.4-0.2,0.7l4.5,7.8l2.9-1.7c0.2-0.1,0.3-0.4,0.2-0.7L23.5,43.6z"/>
	<circle class="st2" cx="24.9" cy="50.9" r="0.7"/>
</g>
</svg>
