<?xml version="1.0" encoding="utf-8"?>
<!-- Generator: Adobe Illustrator 23.0.0, SVG Export Plug-In . SVG Version: 6.00 Build 0)  -->
<svg version="1.1" id="Layer_1" xmlns="http://www.w3.org/2000/svg" xmlns:xlink="http://www.w3.org/1999/xlink" x="0px" y="0px"
	 viewBox="0 0 64 64" style="enable-background:new 0 0 64 64;" xml:space="preserve">
<style type="text/css">
	.st0{fill:#6A94BA;}
	.st1{fill:#D9EAFC;}
	.st2{fill:#C44161;}
	.st3{fill:#BC2448;}
	.st4{fill:#B7092B;}
	.st5{fill:#FFAF10;}
	.st6{fill:#FFD00D;}
	.st7{clip-path:url(#SVGID_2_);fill:#FFD00D;}
	.st8{clip-path:url(#SVGID_2_);fill:#FFAF10;}
	.st9{fill:#FFFFFF;}
	.st10{fill:#E9F5FF;}
	.st11{fill:#F2D1A5;}
	.st12{fill:#FFC987;}
	.st13{clip-path:url(#SVGID_4_);fill:#FFE2B8;}
	.st14{clip-path:url(#SVGID_4_);fill:#FFC987;}
	.st15{fill:#69CDFF;}
	.st16{fill:#52BBEF;}
</style>
<path class="st0" d="M64,32c0,17.7-14.3,32-32,32c-6.8,0-13-2.1-18.2-5.7c-2-1.4-3.7-2.9-5.4-4.7c-0.4-0.4-0.7-0.8-1.1-1.3
	C2.8,46.9,0,39.8,0,32C0,14.3,14.3,0,32,0S64,14.3,64,32z"/>
<g>
	<path class="st1" d="M44.6,25.8l-0.8-2.4H21.4l0.9,8.2l-0.9,9c0,0.7,0.5,1.2,1.2,1.2h20.8c0,0,0,0,0.1,0c0.6,0,1.1-0.5,1.1-1.2
		V25.8z M44.6,25.8"/>
	<path class="st2" d="M44.1,18.3v-2.5c0-0.3,0-0.5-0.1-0.8c-0.3-1.4-1.4-2.5-2.9-2.7c-0.3,0-0.5-0.1-0.8-0.1c-2,0-3.7,1.3-4.8,2.9
		l-0.2,3.4L44.1,18.3z M44.1,18.3"/>
	<path class="st2" d="M22.1,18.4l-0.1-2.8c0.1-1.6,2.8-3.1,2.8-3.1c0.4-0.1,0.7-0.2,1.1-0.2c1.3,0.1,2.6,0.5,3.6,1.4
		c0.4,0.3,0.8,0.7,1.1,1.1l-0.4,3.9L22.1,18.4z M22.1,18.4"/>
	<path class="st3" d="M30.7,14.9l-0.5,3.8l-1.8-0.1v-2.2c0-1.1,0.5-2,1.2-2.7C30,14,30.4,14.5,30.7,14.9L30.7,14.9z M30.7,14.9"/>
	<path class="st3" d="M41,12.4c-0.3,0-0.5-0.1-0.8-0.1c-1.4,0-2.8,0.5-3.9,1.4c-0.4,0.3-0.8,0.7-1.1,1.2l0,3.7l2.2-0.1v-2.1
		c0-0.6-0.1-1.2-0.4-1.7c0-0.1,0-0.2,0-0.3C38.2,13.3,39.5,12.6,41,12.4L41,12.4z M41,12.4"/>
	<path class="st2" d="M36,18.3v-1.9c0-1.2-0.9-2.1-2.1-2.1h-1.8c-1.2,0-2.1,0.9-2.1,2.1v1.9H36z M36,18.3"/>
	<path class="st3" d="M36.5,16.9v1.3l-3.6,0.5l-3.4-0.5v-1.3H36.5z M36.5,16.9"/>
	<path class="st3" d="M44.1,18.3l-8.8,0.3v-0.3H36v-1.3h8.1V18.3z M44.1,18.3"/>
	<path class="st4" d="M37.5,16.9v1.6L36,18.3v-1.3H37.5z M37.5,16.9"/>
	<path class="st3" d="M30,18.3v-1.3h-6.1c-0.3,0-0.5-0.2-0.5-0.5l0.1-0.8c0.1-1.6,1.3-3,3-3.2c0,0,0.1,0,0.1,0
		c-0.3,0-0.5-0.1-0.8-0.1c-0.3,0-0.6,0-0.9,0.1c-1.5,0.2-2.6,1.4-2.9,2.8c0,0.2-0.1,0.4-0.1,0.6l0,2.5l8.4,0.5l0.1-0.5H30z M30,18.3
		"/>
	<path class="st4" d="M28.4,18.6v-1.7H30v1.3L28.4,18.6z M28.4,18.6"/>
	<path class="st5" d="M15.9,21.8C15.9,21.8,15.9,21.8,15.9,21.8l-1.4,0c-0.3,0-0.6-0.3-0.6-0.6c0-0.3,0.3-0.6,0.6-0.6c0,0,0,0,0,0
		l1.3,0c0.3,0,0.6,0.3,0.6,0.6C16.5,21.6,16.2,21.8,15.9,21.8L15.9,21.8z M15.9,21.8"/>
	<path class="st6" d="M16.6,19.5c-0.1,0-0.2,0-0.3-0.1l-1.1-0.7c-0.3-0.2-0.4-0.5-0.2-0.8c0.2-0.3,0.5-0.4,0.8-0.2l1.1,0.7
		c0.3,0.2,0.4,0.5,0.2,0.8C17,19.4,16.8,19.5,16.6,19.5L16.6,19.5z M16.6,19.5"/>
	<g>
		<defs>
			<rect id="SVGID_1_" x="12" y="12.2" width="40" height="39.6"/>
		</defs>
		<clipPath id="SVGID_2_">
			<use xlink:href="#SVGID_1_"  style="overflow:visible;"/>
		</clipPath>
		<path class="st7" d="M15.3,24.9c-0.2,0-0.4-0.1-0.5-0.3c-0.2-0.3-0.1-0.6,0.2-0.8l1.2-0.6c0.3-0.2,0.6-0.1,0.8,0.2
			c0.2,0.3,0.1,0.6-0.2,0.8l-1.2,0.6C15.5,24.9,15.4,24.9,15.3,24.9L15.3,24.9z M15.3,24.9"/>
		<path class="st8" d="M50.1,21.8c-0.3,0-0.6-0.3-0.6-0.6c0-0.3,0.3-0.6,0.6-0.6l1.3,0c0.3,0,0.6,0.3,0.6,0.6c0,0.3-0.3,0.6-0.6,0.6
			L50.1,21.8C50.1,21.8,50.1,21.8,50.1,21.8L50.1,21.8z M50.1,21.8"/>
	</g>
	<path class="st6" d="M49.4,19.5c-0.2,0-0.4-0.1-0.5-0.3c-0.2-0.3-0.1-0.6,0.2-0.8l1.1-0.7c0.3-0.2,0.6-0.1,0.8,0.2
		c0.2,0.3,0.1,0.6-0.2,0.8l-1.1,0.7C49.6,19.5,49.5,19.5,49.4,19.5L49.4,19.5z M49.4,19.5"/>
	<path class="st6" d="M50.7,24.9c-0.1,0-0.2,0-0.3-0.1l-1.2-0.6c-0.3-0.2-0.4-0.5-0.2-0.8c0.2-0.3,0.5-0.4,0.8-0.2l1.2,0.6
		c0.3,0.2,0.4,0.5,0.2,0.8C51.1,24.8,50.9,24.9,50.7,24.9L50.7,24.9z M50.7,24.9"/>
	<path class="st1" d="M45.2,18.3c0.7,0,1.2,0.5,1.2,1.2V23c0,0.7-1.1,0.9-1.7,0.9L21,24c-0.7,0-1.2-0.5-1.2-1.2l0.2-3.2
		c0-0.7,0.2-1.3,0.8-1.3h7.6l4.1,0.9l5-0.9H45.2z M45.2,18.3"/>
	<path class="st9" d="M23,39.3V26c0-0.1,0.1-0.2,0.2-0.2h21.4v-2.4H21.4v17.1L23,39.3z M23,39.3"/>
	<path class="st10" d="M37.5,22.3v-4H36l-3.3,0.9L30,18.3h-1.6v4c0,0.2-0.1,0.3-0.3,0.3h-6.6c-0.2,0-0.3-0.1-0.3-0.3v-4h-0.4
		c-0.7,0-1.2,0.5-1.2,1.2V23c0,0.7,0.5,1.2,1.2,1.2h24.4c0.7,0,1.2-0.5,1.2-1.2v-0.4h-8.5C37.7,22.6,37.5,22.5,37.5,22.3L37.5,22.3z
		 M37.5,22.3"/>
	<path class="st3" d="M30,18.3v5.9L31.2,35l-0.5,6.7h4.4l-0.4-4.4L36,24.2v-5.9H30z M30,18.3"/>
	<path class="st4" d="M36,38.5l-6-2.1V24.2h6V38.5z M36,38.5"/>
	<path class="st4" d="M36,38.5v3.3h-6v-6.4c1.9,1,5.3,2.8,5.6,3C35.7,38.3,35.8,38.4,36,38.5L36,38.5z M36,38.5"/>
	<path class="st11" d="M35.7,40.9l1.4-1.3l6.4-3.5c1.2-0.7,2.7-0.4,3.7,0.5c0.2,0.2-0.4,1.2-0.4,1.2l1.3,0.1l-12.9,7.6L35.7,40.9z
		 M35.7,40.9"/>
	<path class="st12" d="M48.1,38l-0.3-0.5c-0.2-0.3-0.4-0.6-0.6-0.8c-0.3,0.1-0.7,0.2-1,0.4l-7.9,4.3c-0.1,0.1-0.3,0-0.3-0.1
		c-0.2-0.6-0.4-1.1-0.8-1.6l-1.3,0.7l-0.3,2.6l-0.3,2.7l2.6-1.5c0,0,0,0,0,0L48.1,38z M48.1,38"/>
	<g>
		<defs>
			<rect id="SVGID_3_" x="12" y="12.2" width="40" height="39.6"/>
		</defs>
		<clipPath id="SVGID_4_">
			<use xlink:href="#SVGID_3_"  style="overflow:visible;"/>
		</clipPath>
		<path class="st13" d="M51.2,39.7c-0.8-1.6-2.8-2.1-4.3-1.3l-11.4,6.2l0-0.7c0.3-0.5,1-1,1-1.6c-0.1-1.1-0.7-2.1-1.7-2.7
			c0,0-5.1-2.8-6.5-3.4c-1.2-0.5-2.8-0.7-5-0.7c-1.8,0-3.2,0.5-4.3,1.1c-0.7,0.4-0.9,1.6-1.2,1.9l-0.4,9.1l8.1,2.8
			c3.1,1.2,6.4,1.2,9.3-0.4l15.5-8.4C51.1,41.3,51.6,40.5,51.2,39.7C51.2,39.7,51.2,39.7,51.2,39.7L51.2,39.7z M51.2,39.7"/>
		<path class="st14" d="M51.2,39.7C46.7,42.2,34.2,49,34.2,49c-1.4,0.8-3,1.2-4.5,1.2c0,0,0,0,0,0c-1.2,0-2.4-0.2-3.5-0.7l-6.7-2.8
			c-0.2-0.1-0.3-0.3-0.3-0.5v-9.5c-0.7,0.4-1.3,0.9-1.6,1.2L15,43.1l2.5,4.6l8.1,3.2c3.1,1.2,6.5,1,9.4-0.6l15.7-8.5
			C51.3,41.4,51.6,40.5,51.2,39.7L51.2,39.7z M51.2,39.7"/>
	</g>
	<path class="st15" d="M13,50.3l3.1,0.1c0.4,0,0.8-0.4,0.8-0.8l0.6-0.6V36.4c0-0.4-0.4-0.8-0.8-0.8h-3.1L13.1,36
		c-0.4,0-0.8,0.4-0.8,0.8l-0.1,12.7C12.2,50,12.6,50.3,13,50.3L13,50.3z M13,50.3"/>
	<path class="st16" d="M17.5,49v0.8c0,0.4-0.4,0.8-0.8,0.8h-3.9c-0.4,0-0.8-0.4-0.8-0.8V36.4c0-0.4,0.4-0.8,0.8-0.8h0.8v12.8
		c0,0.4,0.3,0.6,0.6,0.6H17.5z M17.5,49"/>
	<path class="st12" d="M36.4,43.5c-0.1,0.1-0.1,0.3-0.2,0.4c-0.3,0.5-0.8,0.9-1.4,0.9c-0.2,0-0.5-0.1-0.7-0.2L27.2,41
		c-0.5-0.3-0.7-1-0.4-1.5c0.3-0.4,0.9-0.6,1.3-0.4l7,3.7c0.7,0.4,1.5-0.2,1.4-1C36.6,42.4,36.6,43,36.4,43.5L36.4,43.5z M36.4,43.5"
		/>
</g>
</svg>
